<?xml version="1.0" standalone="no"?>
<!DOCTYPE svg PUBLIC "-//W3C//DTD SVG 20010904//EN"
 "http://www.w3.org/TR/2001/REC-SVG-20010904/DTD/svg10.dtd">
<svg version="1.0" xmlns="http://www.w3.org/2000/svg"
 width="1678.000000pt" height="1678.000000pt" viewBox="0 0 1678.000000 1678.000000"
 preserveAspectRatio="xMidYMid meet">
<metadata>
Created by potrace 1.11, written by Peter Selinger 2001-2013
</metadata>
<g transform="translate(0.000000,1678.000000) scale(0.100000,-0.100000)"
fill="#000000" stroke="none">
<path d="M2225 15883 c-516 -66 -953 -379 -1178 -843 -41 -85 -91 -221 -102
-279 -2 -11 -6 -24 -8 -29 -3 -4 -8 -27 -11 -52 -3 -25 -10 -70 -15 -100 -12
-68 -6 -391 8 -445 5 -22 13 -55 16 -74 13 -74 80 -259 126 -349 83 -161 163
-269 293 -396 233 -228 521 -369 838 -412 l47 -6 139 -227 c76 -124 168 -273
203 -331 35 -58 67 -106 71 -108 4 -2 8 -8 8 -12 0 -5 122 -208 271 -452 413
-673 460 -751 478 -780 9 -15 47 -78 85 -140 38 -62 173 -282 299 -488 126
-206 246 -402 267 -435 20 -33 102 -166 180 -295 79 -129 159 -260 177 -290
19 -30 71 -116 117 -190 97 -160 316 -518 504 -825 74 -121 184 -301 245 -400
60 -99 135 -220 166 -270 31 -49 63 -102 71 -117 13 -23 178 -292 368 -601 56
-91 108 -177 137 -225 6 -9 50 -82 99 -162 111 -180 242 -394 404 -660 68
-113 132 -216 141 -230 9 -14 21 -34 28 -45 7 -11 40 -66 75 -123 35 -57 72
-118 83 -136 11 -19 52 -87 92 -152 l72 -119 -34 -96 c-64 -184 -80 -280 -79
-499 0 -162 4 -212 22 -296 75 -348 245 -634 509 -856 204 -170 472 -293 728
-333 91 -14 316 -17 411 -6 245 29 501 127 696 268 86 62 234 201 295 278 186
232 304 522 329 806 6 67 5 241 -1 285 -24 169 -57 311 -84 363 -7 12 -9 21
-7 21 9 0 -62 151 -106 225 -233 395 -615 654 -1078 730 -19 3 -35 7 -36 8
-17 25 -238 386 -293 479 -9 15 -58 96 -110 180 -52 84 -143 232 -201 328
-130 212 -272 444 -394 643 -50 81 -98 160 -107 175 -9 15 -59 97 -111 182
-52 85 -101 166 -109 180 -8 14 -16 27 -19 30 -3 3 -39 61 -80 130 -41 69 -78
127 -82 128 -5 2 -8 7 -8 12 0 4 -59 104 -131 221 -180 292 -262 426 -274 447
-5 10 -53 87 -105 172 -52 85 -99 163 -105 173 -5 10 -77 127 -159 260 -464
755 -546 890 -546 898 0 5 -4 9 -10 9 -5 0 -10 5 -10 11 0 6 -15 34 -34 62
-18 29 -97 158 -176 287 -78 129 -153 251 -166 270 -12 19 -54 87 -92 150 -59
99 -369 604 -453 740 -15 25 -45 74 -66 109 -21 35 -42 71 -48 80 -5 9 -49 79
-96 156 -48 77 -144 235 -214 350 -71 116 -161 264 -202 330 -40 66 -77 127
-82 135 -5 8 -77 126 -160 261 l-151 246 25 74 c38 110 56 182 70 283 13 93
15 116 15 217 4 740 -541 1371 -1280 1484 -78 12 -324 17 -395 8z"/>
<path d="M14225 15883 c-265 -35 -536 -145 -738 -300 -59 -46 -202 -183 -251
-241 -142 -170 -278 -464 -311 -673 -3 -19 -9 -59 -14 -89 -14 -82 -11 -313 5
-415 56 -365 240 -689 532 -937 l53 -45 -1 -3297 -1 -3297 63 42 c161 110 366
194 568 234 130 25 415 26 535 1 216 -46 417 -127 567 -230 l67 -46 1 3297 0
3298 37 30 c62 48 205 195 254 260 165 216 274 490 304 765 6 58 7 248 1 290
-21 149 -22 158 -48 255 -83 311 -278 602 -535 797 -139 106 -263 171 -453
238 -34 12 -176 47 -225 55 -46 8 -366 14 -410 8z"/>
<path d="M12716 13367 c-54 -89 -109 -178 -121 -197 -27 -42 -726 -1182 -740
-1208 -5 -10 -31 -51 -56 -92 -25 -41 -115 -187 -199 -325 -84 -137 -163 -266
-175 -285 -21 -32 -92 -148 -373 -610 -52 -85 -114 -186 -138 -223 -24 -37
-44 -70 -44 -73 0 -3 -15 -29 -34 -57 -19 -29 -116 -187 -216 -352 -101 -165
-195 -318 -210 -340 -15 -22 -29 -45 -31 -50 -4 -10 -259 -429 -314 -515 -12
-19 -55 -89 -95 -155 -40 -66 -83 -136 -95 -155 -24 -37 -143 -233 -160 -262
-23 -40 -131 -216 -153 -248 -13 -19 -28 -44 -33 -55 -5 -11 -43 -74 -84 -140
-71 -113 -281 -454 -316 -513 -50 -85 -144 -238 -149 -242 -3 -3 -10 -14 -16
-25 -6 -11 -104 -172 -219 -358 l-207 -338 87 -145 c48 -79 90 -144 94 -145
21 -2 63 -12 115 -25 34 -9 68 -17 76 -19 18 -4 124 -41 165 -58 75 -30 257
-128 329 -176 194 -132 379 -319 501 -509 22 -34 42 -62 45 -62 4 0 150 233
235 376 11 18 76 125 145 236 69 112 132 215 140 229 8 14 42 69 75 123 33 53
73 118 89 144 16 26 34 56 40 67 6 11 54 90 107 175 53 85 158 256 234 380 75
124 144 236 153 250 9 14 22 34 28 45 16 29 392 643 419 685 38 57 155 252
155 257 0 2 5 9 11 16 5 7 55 86 111 177 136 224 523 856 618 1010 42 69 124
202 180 295 57 94 117 193 135 220 17 28 71 115 120 195 48 80 98 161 110 180
12 19 51 82 85 139 l63 103 0 1167 0 1167 -84 85 c-46 47 -91 95 -99 106 -8
11 -41 54 -72 96 -32 42 -58 81 -58 86 0 6 -4 11 -9 11 -5 0 -14 12 -20 28 -6
15 -19 37 -29 49 -17 22 -18 21 -116 -140z"/>
<path d="M1498 8660 l-3 -4172 -244 -143 c-281 -164 -306 -182 -332 -239 -17
-38 -19 -75 -19 -578 l0 -538 1503 0 1502 0 -1 530 c-2 588 -2 586 -67 646
-17 17 -75 55 -127 86 -52 30 -165 96 -251 147 l-156 92 0 3067 0 3067 -54 88
c-30 49 -63 103 -74 121 -11 19 -53 87 -93 152 -40 66 -77 126 -82 134 -5 8
-38 62 -73 120 -36 58 -126 206 -202 330 -76 124 -145 239 -155 255 -16 28
-401 660 -458 751 -25 41 -28 42 -136 69 -134 33 -273 83 -381 139 -44 22 -83
42 -87 44 -5 2 -9 -1874 -10 -4168z"/>
<path d="M14259 6586 c-2 -2 -22 -6 -44 -10 -438 -64 -825 -396 -958 -822 -39
-124 -54 -221 -55 -351 0 -187 22 -306 88 -467 94 -230 235 -403 441 -541 146
-99 302 -161 474 -190 114 -20 367 -13 449 11 15 5 88 -63 332 -307 l314 -314
0 -1215 c0 -1161 1 -1217 19 -1255 35 -75 99 -117 196 -129 28 -4 61 -8 75
-11 14 -3 41 -7 60 -10 19 -3 60 -10 90 -15 30 -5 73 -11 95 -15 22 -3 51 -7
65 -10 118 -21 166 -21 218 1 74 30 119 104 135 219 3 17 14 80 26 140 40 206
60 310 65 340 3 17 14 75 25 130 11 55 23 114 26 130 5 28 8 47 19 103 3 12
17 86 31 165 15 78 30 158 35 177 5 19 11 51 14 70 9 53 16 93 21 110 3 8 7
33 11 55 3 22 10 59 15 83 5 23 12 59 15 80 3 20 7 45 10 54 6 20 10 43 18 93
4 21 15 81 26 134 11 53 22 112 25 131 4 19 29 152 57 295 27 143 52 271 55
285 2 14 11 59 19 100 18 98 18 154 -3 198 -10 23 -234 253 -596 614 l-579
577 7 57 c15 126 5 263 -31 405 -78 310 -261 561 -536 733 -72 44 -244 121
-291 130 -12 2 -40 9 -62 14 -22 6 -53 14 -70 18 -33 7 -339 16 -346 10z"/>
<path d="M12509 4521 c-245 -245 -453 -457 -462 -471 -25 -39 -36 -103 -26
-157 5 -26 12 -61 15 -78 3 -16 19 -100 36 -185 16 -85 32 -168 34 -185 3 -16
9 -48 14 -70 8 -35 65 -328 76 -395 3 -14 11 -56 19 -95 8 -38 17 -85 20 -102
3 -18 14 -78 25 -133 11 -55 22 -115 25 -133 3 -17 12 -63 20 -102 18 -94 64
-329 119 -615 118 -614 146 -747 161 -778 22 -44 88 -91 139 -99 23 -4 43 -7
46 -6 3 1 29 4 59 8 30 4 63 9 75 11 12 2 94 15 184 29 222 35 257 42 291 60
41 21 87 80 99 126 6 25 10 482 10 1237 l0 1198 199 199 c134 134 193 200 183
203 -8 2 -57 24 -108 48 -313 146 -576 411 -720 724 -40 88 -72 170 -72 186 0
7 -3 15 -7 17 -5 3 -209 -196 -454 -442z"/>
<path d="M835 2654 c-33 -20 -73 -45 -90 -54 -16 -10 -82 -48 -145 -85 -63
-38 -149 -88 -190 -112 -41 -24 -84 -49 -95 -56 -52 -32 -102 -62 -120 -71
-81 -44 -134 -84 -160 -119 l-30 -42 -3 -612 -3 -613 2403 0 2403 0 -1 593
c-1 568 -2 594 -21 637 -28 63 -49 81 -214 178 -79 47 -193 114 -254 150 -60
36 -120 70 -132 76 -13 6 -23 14 -23 19 0 4 -5 7 -11 7 -6 0 -63 32 -128 70
l-117 70 -1504 0 -1505 0 -60 -36z"/>
</g>
</svg>
